# xmcd
#
# Track frame offsets:
# 150
# 16226
# 32515
# 52254
# 72777
# 89744
# 107791
# 122460
# 141935
# 160955
# 175855
# 192575
# 207934
# 226372
# 242497
# 258336
# 273630
# 289453
# 304868
# 315977
#
# Disc length: 4458 seconds
#
# Revision: 1
# Processed by: cddbd v1.5.1PL2 Copyright (c) Steve Scherf et al.
# Submitted via: CedeCatalogueitor 2.6.0.6 http://personales.ya.com/cdcatalogueitor
#
DISCID=27116814
DTITLE=ANA GABRIEL - QUIEN COMO TU
DYEAR=1900
DGENRE=
TTITLE0=QUIEN COMO TU
TTITLE1=BAILA EL REGAEE
TTITLE2=COMO OLVIDAR
TTITLE3=NI UN ROCE
TTITLE4=NO ENTIENDO
TTITLE5=EN LA OSCURIDAD
TTITLE6=OYE
TTITLE7=ADIOS TRISTEZA
TTITLE8=Y AQUI ESTOY
TTITLE9=ALGO
TTITLE10=AMIGO MIO
TTITLE11=AHORA
TTITLE12=HICE BIEN EN QUERERTE
TTITLE13=SIN PROBLEMAS
TTITLE14=SOLO QUIERO SER AMADA
TTITLE15=DEJAME SOLA
TTITLE16=HECHIZO
TTITLE17=FUI Y
TTITLE18=NO SIEMPRE SE GANA
TTITLE19=VOY A SER
EXTD=
EXTT0=
EXTT1=
EXTT2=
EXTT3=
EXTT4=
EXTT5=
EXTT6=
EXTT7=
EXTT8=
EXTT9=
EXTT10=
EXTT11=
EXTT12=
EXTT13=
EXTT14=
EXTT15=
EXTT16=
EXTT17=
EXTT18=
EXTT19=
PLAYORDER=
